<svg xmlns="http://www.w3.org/2000/svg" width="126" height="48" fill="none"><path fill="url(#a)" d="M75.301 26.393c-3.722 0-6.75 2.99-6.75 6.663 0 3.675 3.028 6.664 6.75 6.664s6.75-2.99 6.75-6.663c0-3.675-3.028-6.664-6.75-6.664m0 11.106c-2.481 0-4.5-1.993-4.5-4.443s2.019-4.442 4.5-4.442c2.482 0 4.5 1.993 4.5 4.442 0 2.45-2.019 4.443-4.5 4.443"/><path fill="url(#b)" d="M86.552 19.308h-2.25v19.945h2.25z"/><path fill="url(#c)" d="M67.426 26.342a6.77 6.77 0 0 0-4.5 1.702V26.62h-2.25v12.633h2.25v-6.247c0-2.45 2.019-4.443 4.5-4.443z"/><path fill="url(#d)" d="M45.476 33.057c0-3.745 2.903-6.663 6.566-6.663s6.331 2.608 6.383 7.205H47.804c.21 2.299 2.014 4.029 4.395 4.029a5.46 5.46 0 0 0 3.82-1.55l1.439 1.55c-1.125 1.162-2.983 2.092-5.259 2.092-3.872 0-6.723-2.944-6.723-6.663m2.433-1.395h7.979c-.314-2.117-1.988-3.254-3.977-3.228-1.91 0-3.531 1.265-4.002 3.228"/><path fill="url(#e)" d="M99.77 26.67v1.19a6.77 6.77 0 0 0-4.218-1.467c-3.722 0-6.75 2.99-6.75 6.663 0 3.675 3.028 6.664 6.75 6.664a6.77 6.77 0 0 0 4.219-1.467v1h2.25V26.67zm0 7.918a4.5 4.5 0 0 1-4.218 2.91c-2.481 0-4.5-1.992-4.5-4.442s2.018-4.442 4.5-4.442a4.5 4.5 0 0 1 4.219 2.911c.179.478.281.993.281 1.531 0 .54-.102 1.054-.281 1.532"/><path fill="url(#f)" d="M40.975 26.67v1.19a6.77 6.77 0 0 0-4.219-1.467c-3.722 0-6.75 2.99-6.75 6.663 0 3.675 3.028 6.664 6.75 6.664a6.77 6.77 0 0 0 4.219-1.467v1h2.25V26.67zm0 7.918a4.5 4.5 0 0 1-4.219 2.91c-2.481 0-4.5-1.992-4.5-4.442s2.019-4.442 4.5-4.442a4.5 4.5 0 0 1 4.219 2.911c.179.478.281.993.281 1.531 0 .54-.102 1.054-.281 1.532"/><path fill="url(#g)" d="M105.396 19.308v19.945h2.251v-1a6.77 6.77 0 0 0 4.218 1.467c3.723 0 6.751-2.99 6.751-6.664 0-3.675-3.028-6.664-6.751-6.664-1.595 0-3.062.55-4.218 1.468v-8.552zm1.969 13.748c0-.539.103-1.053.282-1.531a4.5 4.5 0 0 1 4.218-2.912c2.482 0 4.501 1.993 4.501 4.443s-2.019 4.443-4.501 4.443a4.5 4.5 0 0 1-4.218-2.912 4.4 4.4 0 0 1-.282-1.531"/><path fill="url(#h)" d="M33.75 15.024 27.285 3.968a.17.17 0 0 0-.229-.061l-11.2 6.384a.165.165 0 0 0-.08.176l3.63 17.518-.53.591c-.893.994-1.648 1.532-3.085 1.532-1.61 0-2.367-.838-3.564-2.32-1.411-1.745-3.163-3.912-7.365-3.97a.17.17 0 0 0-.172.167v1.779c0 .09.075.163.167.164 3.174.052 4.4 1.57 5.7 3.176 1.179 1.46 2.516 3.113 5.234 3.113 2.347 0 3.637-1.077 4.683-2.24l3.857-4.295 9.4-10.465a.16.16 0 0 0 .02-.193"/><defs><linearGradient id="a" x1="75.301" x2="75.301" y1="26.393" y2="39.72" gradientUnits="userSpaceOnUse"><stop stop-color="#F80"/><stop offset="1" stop-color="#F60"/></linearGradient><linearGradient id="b" x1="85.427" x2="85.427" y1="19.308" y2="39.253" gradientUnits="userSpaceOnUse"><stop stop-color="#F80"/><stop offset="1" stop-color="#F60"/></linearGradient><linearGradient id="c" x1="64.051" x2="64.051" y1="26.342" y2="39.253" gradientUnits="userSpaceOnUse"><stop stop-color="#F80"/><stop offset="1" stop-color="#F60"/></linearGradient><linearGradient id="d" x1="51.95" x2="51.95" y1="26.394" y2="39.72" gradientUnits="userSpaceOnUse"><stop stop-color="#F80"/><stop offset="1" stop-color="#F60"/></linearGradient><linearGradient id="e" x1="95.411" x2="95.411" y1="26.393" y2="39.72" gradientUnits="userSpaceOnUse"><stop stop-color="#F80"/><stop offset="1" stop-color="#F60"/></linearGradient><linearGradient id="f" x1="36.615" x2="36.615" y1="26.393" y2="39.72" gradientUnits="userSpaceOnUse"><stop stop-color="#F80"/><stop offset="1" stop-color="#F60"/></linearGradient><linearGradient id="g" x1="112.006" x2="112.006" y1="19.308" y2="39.72" gradientUnits="userSpaceOnUse"><stop stop-color="#F80"/><stop offset="1" stop-color="#F60"/></linearGradient><linearGradient id="h" x1="19.231" x2="19.231" y1="3.885" y2="32.217" gradientUnits="userSpaceOnUse"><stop stop-color="#F80"/><stop offset="1" stop-color="#F60"/></linearGradient></defs></svg>