<svg xmlns="http://www.w3.org/2000/svg" fill="none" viewBox="0 0 24 24"><rect width="24" height="24" fill="#F5F9FF" rx="12"/><path fill="#252F3D" fill-rule="evenodd" d="M14.95 5.402a.31.31 0 0 0-.422-.111l-5.06 2.867a.3.3 0 0 0-.148.324l1.703 8.168a.17.17 0 0 1-.035.126l-.207.229c-.43.476-.794.734-1.487.734-.776 0-1.141-.402-1.719-1.112-.69-.848-1.547-1.904-3.633-1.904H3.89a.51.51 0 0 0-.515.506c0 .28.23.506.515.506h.052c1.59 0 2.191.74 2.828 1.522.569.7 1.214 1.493 2.524 1.493 1.131 0 1.754-.517 2.258-1.075l1.86-2.058 4.424-4.896a.3.3 0 0 0 .036-.353z" clip-rule="evenodd"/></svg>