<svg xmlns="http://www.w3.org/2000/svg" width="48" height="48" fill="none"><path fill="url(#a)" fill-rule="evenodd" d="M35.868 6.405a.833.833 0 0 0-1.126-.296l-13.494 7.646a.8.8 0 0 0-.395.863l4.541 21.78a.44.44 0 0 1-.092.337l-.552.61c-1.147 1.27-2.119 1.958-3.966 1.958-2.07 0-3.043-1.071-4.583-2.965-1.838-2.262-4.127-5.076-9.69-5.076h-.137c-.759 0-1.374.604-1.374 1.348s.615 1.349 1.374 1.349h.137c4.24 0 5.844 1.972 7.543 4.06C15.57 39.887 17.29 42 20.784 42c3.017 0 4.678-1.377 6.022-2.865l4.96-5.49L43.562 20.59a.8.8 0 0 0 .097-.94z" clip-rule="evenodd"/><defs><linearGradient id="a" x1="24.385" x2="24.385" y1="6" y2="42" gradientUnits="userSpaceOnUse"><stop stop-color="#F80"/><stop offset="1" stop-color="#F60"/></linearGradient></defs></svg>