<svg xmlns="http://www.w3.org/2000/svg" width="256" height="256" fill="none"><rect width="256" height="256" fill="url(#a)" rx="128"/><path fill="#fff" fill-rule="evenodd" d="M159.474 57.618c-.911-1.547-2.928-2.078-4.504-1.184L100.994 87.02a3.215 3.215 0 0 0-1.581 3.451l18.165 87.125c.088.42-.094 1.039-.369 1.344l-2.207 2.442c-4.588 5.08-8.475 7.831-15.863 7.831-8.284 0-12.174-4.286-18.333-11.861-7.355-9.045-16.507-20.303-38.76-20.303h-.55c-3.035 0-5.495 2.415-5.495 5.393 0 2.979 2.46 5.394 5.495 5.394h.55c16.96 0 23.376 7.89 30.17 16.244C78.282 191.542 85.16 200 99.138 200c12.067 0 18.708-5.509 24.087-11.462l19.838-21.955c0-.002 47.184-52.225 47.184-52.225a3.19 3.19 0 0 0 .388-3.765z" clip-rule="evenodd"/><defs><linearGradient id="a" x1="-14.3" x2="319.271" y1="-10.88" y2="62.876" gradientUnits="userSpaceOnUse"><stop stop-color="#176FEB"/><stop offset="1" stop-color="#FF80FF"/></linearGradient></defs></svg>