<svg xmlns="http://www.w3.org/2000/svg" fill="none" viewBox="0 0 24 24"><path fill="url(#a)" d="M19.58 13.5a1.49 1.49 0 0 1-.98 1.408l-4.89 1.801-1.802 4.89a1.5 1.5 0 0 1-2.815 0L7.29 16.71 2.4 14.909a1.5 1.5 0 0 1 0-2.815l4.89-1.802L9.093 5.4a1.5 1.5 0 0 1 2.815 0l1.802 4.89 4.89 1.801a1.49 1.49 0 0 1 .98 1.408m-5.33-9h1.5V6a.75.75 0 1 0 1.5 0V4.5h1.5a.75.75 0 1 0 0-1.5h-1.5V1.5a.75.75 0 1 0-1.5 0V3h-1.5a.75.75 0 1 0 0 1.5m8.25 3h-.75v-.75a.75.75 0 1 0-1.5 0v.75h-.75a.75.75 0 1 0 0 1.5h.75v.75a.75.75 0 1 0 1.5 0V9h.75a.75.75 0 1 0 0-1.5"/><defs><linearGradient id="a" x1=".2" x2="28.646" y1="-.178" y2="6.112" gradientUnits="userSpaceOnUse"><stop stop-color="#176FEB"/><stop offset="1" stop-color="#FF80FF"/></linearGradient></defs></svg>