<svg xmlns="http://www.w3.org/2000/svg" width="280" height="164" fill="none"><path stroke="#F2F7FF" stroke-opacity=".1" d="M-412.305 110.479q53.357-20.72 109.196-8.137 55.838 12.584 109.195-8.137 53.357-20.72 109.196-8.138 55.84 12.584 109.196-8.137 53.358-20.72 109.196-8.137 55.84 12.583 109.196-8.137 53.357-20.721 109.196-8.138 55.84 12.584 109.196-8.137 53.357-20.72 109.196-8.137t109.196-8.137q53.357-20.721 109.196-8.138 55.838 12.585 109.196-8.137 53.357-20.72 109.194-8.137 55.845 12.583 109.2-8.138c35.57-13.813 71.97-16.526 109.19-8.137q55.845 12.585 109.2-8.137 53.355-20.72 109.2-8.138c37.22 8.39 73.62 5.677 109.19-8.137q53.355-20.72 109.2-8.137c37.22 8.389 73.62 5.676 109.19-8.137"/><path stroke="#F2F7FF" stroke-opacity=".1" d="M-411.59 120.086q53.358-20.72 109.196-8.137 55.84 12.584 109.196-8.137 53.357-20.72 109.196-8.138 55.84 12.584 109.196-8.137Q78.552 66.817 134.39 79.4q55.84 12.583 109.196-8.137 53.357-20.721 109.196-8.138t109.196-8.137q53.357-20.72 109.196-8.137t109.196-8.138 109.195-8.137q55.84 12.585 109.196-8.137 53.357-20.72 109.199-8.137c37.22 8.389 73.62 5.676 109.19-8.138q53.355-20.72 109.2-8.137c37.22 8.389 73.62 5.677 109.19-8.137 35.58-13.814 71.97-16.527 109.2-8.138q55.845 12.585 109.2-8.137c35.57-13.814 71.97-16.526 109.19-8.137q55.845 12.583 109.2-8.137"/><path stroke="#F2F7FF" stroke-opacity=".1" d="M-410.874 129.693q53.358-20.721 109.196-8.138 55.84 12.584 109.196-8.137 53.357-20.72 109.196-8.137 55.84 12.583 109.196-8.137 53.357-20.721 109.196-8.138t109.196-8.137 109.196-8.137q55.838 12.583 109.195-8.138 53.358-20.72 109.196-8.137 55.84 12.585 109.196-8.137 53.357-20.72 109.196-8.137 55.84 12.583 109.196-8.138 53.358-20.72 109.193-8.137 55.845 12.584 109.2-8.137c35.57-13.814 71.97-16.527 109.19-8.138q55.845 12.585 109.2-8.137 53.355-20.72 109.2-8.137c37.22 8.389 73.62 5.676 109.19-8.137q53.355-20.721 109.2-8.138c37.22 8.39 73.62 5.677 109.19-8.137"/><path stroke="#F2F7FF" stroke-opacity=".1" d="M-410.158 139.3q53.357-20.721 109.196-8.138 55.84 12.584 109.196-8.137 53.357-20.72 109.196-8.137t109.196-8.137q53.357-20.721 109.196-8.138t109.196-8.137 109.195-8.137q55.84 12.583 109.196-8.138 53.358-20.72 109.196-8.137 55.84 12.584 109.196-8.137 53.357-20.72 109.196-8.138 55.84 12.584 109.196-8.137 53.357-20.72 109.197-8.137c37.22 8.389 73.62 5.676 109.19-8.137 35.58-13.814 71.97-16.527 109.2-8.138q55.845 12.584 109.2-8.137c35.57-13.814 71.97-16.526 109.19-8.137q55.845 12.583 109.2-8.137c35.57-13.814 71.97-16.527 109.19-8.138q55.845 12.584 109.2-8.137"/><path stroke="#F2F7FF" stroke-opacity=".1" d="M-409.442 148.907q53.357-20.721 109.196-8.138t109.196-8.137 109.196-8.137 109.196-8.138q53.356-20.72 109.195-8.137 55.84 12.584 109.196-8.137 53.358-20.72 109.196-8.137 55.84 12.583 109.196-8.138 53.357-20.72 109.196-8.137 55.84 12.584 109.196-8.137 53.357-20.721 109.196-8.138t109.196-8.137q53.358-20.72 109.191-8.137 55.845 12.583 109.2-8.137 53.355-20.721 109.2-8.138c37.22 8.39 73.62 5.677 109.19-8.137q53.355-20.72 109.2-8.137c37.22 8.389 73.62 5.676 109.19-8.138 35.58-13.813 71.97-16.526 109.2-8.137 37.23 8.39 73.62 5.677 109.2-8.137"/><path stroke="#F2F7FF" stroke-opacity=".1" d="M-408.726 158.513q53.357-20.72 109.196-8.137t109.196-8.138q53.357-20.72 109.196-8.137 55.838 12.584 109.195-8.137 53.358-20.72 109.196-8.137 55.84 12.583 109.196-8.138 53.358-20.72 109.196-8.137 55.84 12.584 109.196-8.137 53.357-20.721 109.196-8.138t109.196-8.137q53.357-20.72 109.196-8.137 55.839 12.584 109.196-8.137t109.195-8.138q55.845 12.584 109.2-8.137c35.57-13.814 71.97-16.526 109.19-8.137q55.845 12.583 109.2-8.137c35.57-13.814 71.97-16.527 109.19-8.138q55.845 12.584 109.2-8.137 53.355-20.72 109.2-8.137c37.22 8.389 73.62 5.676 109.19-8.138"/><path stroke="#F2F7FF" stroke-opacity=".1" d="M-408.01 168.12q53.357-20.72 109.196-8.137t109.195-8.138q53.358-20.72 109.196-8.137 55.84 12.584 109.196-8.137 53.358-20.72 109.196-8.137 55.84 12.583 109.196-8.138 53.357-20.72 109.196-8.137 55.838 12.584 109.196-8.137t109.196-8.138 109.196-8.137 109.196-8.137 109.195-8.137 109.2-8.138c37.22 8.39 73.62 5.677 109.19-8.137q53.355-20.72 109.2-8.137c37.22 8.389 73.62 5.676 109.19-8.138 35.58-13.813 71.97-16.526 109.2-8.137 37.23 8.39 73.62 5.677 109.2-8.137 35.57-13.814 71.97-16.526 109.19-8.138q55.845 12.584 109.2-8.137"/><path stroke="#F2F7FF" stroke-opacity=".1" stroke-width="2" d="M-407.294 177.727q53.358-20.72 109.196-8.137 55.84 12.583 109.196-8.138 53.358-20.72 109.196-8.137 55.84 12.584 109.196-8.137 53.357-20.72 109.196-8.138 55.838 12.584 109.196-8.137 53.357-20.72 109.196-8.137t109.196-8.137 109.196-8.138q55.838 12.584 109.195-8.137 53.357-20.72 109.196-8.137 55.84 12.583 109.196-8.138 53.358-20.72 109.193-8.137 55.845 12.585 109.2-8.137c35.57-13.814 71.97-16.526 109.19-8.137q55.845 12.583 109.2-8.138 53.355-20.72 109.2-8.137c37.22 8.389 73.62 5.677 109.19-8.137q53.355-20.72 109.2-8.137c37.22 8.389 73.62 5.676 109.19-8.138"/><path stroke="#F2F7FF" stroke-opacity=".1" stroke-width="2" d="M-406.578 187.333q53.357-20.72 109.196-8.137 55.84 12.584 109.196-8.137 53.357-20.72 109.196-8.137t109.196-8.138q53.357-20.72 109.196-8.137t109.196-8.137q53.357-20.721 109.196-8.138t109.195-8.137q53.358-20.72 109.196-8.137 55.84 12.583 109.196-8.137 53.357-20.721 109.196-8.138 55.84 12.584 109.196-8.137 53.356-20.72 109.197-8.137c37.22 8.389 73.62 5.676 109.19-8.138 35.58-13.814 71.97-16.526 109.2-8.137q55.845 12.584 109.2-8.137c35.57-13.814 71.97-16.526 109.19-8.138q55.845 12.584 109.2-8.137c35.57-13.814 71.97-16.526 109.19-8.137q55.845 12.583 109.2-8.137"/><path stroke="#F2F7FF" stroke-opacity=".1" stroke-width="2" d="M-405.862 196.94q53.357-20.72 109.196-8.137 55.839 12.584 109.196-8.137t109.196-8.138q55.838 12.584 109.196-8.137 53.357-20.72 109.196-8.137t109.195-8.137q53.358-20.721 109.196-8.138 55.84 12.584 109.196-8.137 53.358-20.72 109.196-8.137 55.84 12.583 109.196-8.138 53.357-20.72 109.196-8.137 55.84 12.584 109.196-8.137 53.358-20.72 109.191-8.137 55.845 12.583 109.2-8.138 53.355-20.72 109.2-8.137c37.22 8.389 73.62 5.677 109.19-8.137q53.355-20.72 109.2-8.138c37.22 8.39 73.62 5.677 109.19-8.137 35.58-13.814 71.97-16.526 109.2-8.137s73.62 5.676 109.2-8.137"/><path stroke="#F2F7FF" stroke-opacity=".1" stroke-width="2" d="M-405.146 206.547q53.357-20.72 109.196-8.137 55.839 12.584 109.196-8.137t109.196-8.138q55.838 12.584 109.195-8.137 53.358-20.72 109.196-8.137 55.84 12.583 109.196-8.137 53.358-20.721 109.196-8.138 55.84 12.584 109.196-8.137 53.357-20.72 109.196-8.137t109.196-8.138q53.357-20.72 109.196-8.137 55.839 12.584 109.196-8.137 53.357-20.72 109.195-8.137c37.23 8.389 73.62 5.676 109.2-8.138 35.57-13.814 71.97-16.526 109.19-8.137q55.845 12.584 109.2-8.137c35.57-13.814 71.97-16.527 109.19-8.138q55.845 12.585 109.2-8.137 53.355-20.72 109.2-8.137c37.22 8.389 73.62 5.676 109.19-8.138"/><path stroke="#F2F7FF" stroke-opacity=".1" stroke-width="2" d="M-404.43 216.154q53.357-20.721 109.196-8.138t109.195-8.137q53.357-20.72 109.196-8.137 55.84 12.583 109.196-8.137 53.357-20.721 109.196-8.138 55.84 12.584 109.196-8.137 53.357-20.72 109.196-8.137 55.84 12.583 109.196-8.138 53.357-20.72 109.196-8.137 55.839 12.584 109.196-8.137 53.357-20.72 109.196-8.137t109.196-8.138q53.356-20.72 109.199-8.137c37.22 8.389 73.62 5.677 109.19-8.137q53.355-20.721 109.2-8.138c37.22 8.389 73.62 5.677 109.19-8.137 35.58-13.814 71.97-16.526 109.2-8.137s73.62 5.676 109.2-8.137c35.57-13.814 71.97-16.527 109.19-8.138q55.845 12.585 109.2-8.137"/><path stroke="#F2F7FF" stroke-opacity=".1" stroke-width="2" d="M-403.715 225.761q53.358-20.721 109.196-8.138 55.84 12.584 109.196-8.137 53.357-20.72 109.196-8.137 55.84 12.583 109.196-8.138 53.358-20.72 109.196-8.137 55.84 12.584 109.196-8.137 53.357-20.72 109.196-8.137t109.196-8.138q53.357-20.72 109.196-8.137 55.838 12.584 109.196-8.137t109.195-8.138q55.84 12.584 109.196-8.137 53.358-20.72 109.194-8.137 55.845 12.583 109.2-8.137c35.57-13.814 71.97-16.527 109.19-8.138q55.845 12.584 109.2-8.137 53.355-20.72 109.2-8.137c37.22 8.389 73.62 5.676 109.19-8.138q53.355-20.72 109.2-8.137c37.22 8.39 73.62 5.677 109.19-8.137"/><path stroke="#F2F7FF" stroke-opacity=".1" stroke-width="2" d="M-402.999 235.368q53.358-20.721 109.196-8.138 55.84 12.584 109.196-8.137 53.357-20.72 109.196-8.137 55.84 12.583 109.196-8.138 53.357-20.72 109.196-8.137 55.838 12.584 109.196-8.137 53.357-20.72 109.196-8.137t109.195-8.138q53.358-20.72 109.196-8.137 55.84 12.584 109.196-8.137 53.357-20.721 109.196-8.138 55.84 12.584 109.196-8.137 53.356-20.72 109.198-8.137c37.22 8.389 73.62 5.676 109.19-8.137 35.58-13.814 71.97-16.527 109.2-8.138s73.62 5.677 109.2-8.137c35.57-13.814 71.97-16.526 109.19-8.137q55.845 12.583 109.2-8.138c35.57-13.813 71.97-16.526 109.19-8.137q55.845 12.585 109.2-8.137"/><path stroke="#F2F7FF" stroke-opacity=".1" stroke-width="2" d="M-402.283 244.974q53.357-20.72 109.196-8.137 55.84 12.584 109.196-8.137 53.357-20.72 109.196-8.137T34.5 212.425t109.196-8.137q55.838 12.584 109.196-8.137 53.357-20.72 109.195-8.138 55.84 12.584 109.196-8.137 53.358-20.72 109.196-8.137 55.84 12.583 109.196-8.137 53.357-20.721 109.196-8.138 55.84 12.584 109.196-8.137 53.358-20.72 109.192-8.137 55.845 12.583 109.2-8.138 53.355-20.72 109.2-8.137c37.22 8.389 73.62 5.677 109.19-8.137q53.355-20.72 109.2-8.137c37.22 8.389 73.62 5.676 109.19-8.138q53.355-20.72 109.2-8.137c37.23 8.389 73.62 5.677 109.2-8.137"/><path stroke="#F2F7FF" stroke-opacity=".1" stroke-width="2" d="M-401.567 254.581q53.357-20.72 109.196-8.137t109.196-8.138 109.196-8.137 109.196-8.137q53.356-20.72 109.195-8.137 55.84 12.583 109.196-8.138 53.358-20.72 109.196-8.137 55.84 12.583 109.196-8.137 53.357-20.721 109.196-8.138 55.84 12.584 109.196-8.137 53.357-20.72 109.196-8.137t109.196-8.138q53.357-20.72 109.196-8.137c37.23 8.389 73.62 5.677 109.2-8.137 35.57-13.814 71.97-16.526 109.19-8.137q55.845 12.583 109.2-8.138c35.57-13.813 71.97-16.526 109.19-8.137q55.845 12.584 109.2-8.137 53.355-20.72 109.2-8.138c37.22 8.389 73.62 5.677 109.19-8.137"/><path stroke="#F2F7FF" stroke-opacity=".1" stroke-width="2" d="M-400.851 264.188q53.357-20.72 109.196-8.137t109.196-8.138q53.357-20.72 109.196-8.137 55.838 12.584 109.195-8.137 53.358-20.721 109.196-8.138 55.84 12.584 109.196-8.137 53.357-20.72 109.196-8.137 55.84 12.583 109.196-8.137 53.357-20.721 109.196-8.138t109.196-8.137 109.196-8.137q55.838 12.583 109.195-8.138 53.356-20.72 109.201-8.137c37.22 8.389 73.62 5.677 109.19-8.137q53.355-20.72 109.2-8.137c37.22 8.389 73.62 5.676 109.19-8.138q53.355-20.72 109.2-8.137c37.22 8.389 73.62 5.677 109.19-8.137 35.58-13.814 71.97-16.527 109.2-8.138q55.845 12.584 109.2-8.137"/><path stroke="#F2F7FF" stroke-opacity=".1" stroke-width="2" d="M-400.135 273.795q53.357-20.72 109.196-8.137t109.195-8.138q53.358-20.72 109.196-8.137 55.84 12.583 109.196-8.137 53.358-20.721 109.196-8.138 55.84 12.584 109.196-8.137 53.357-20.72 109.196-8.137t109.196-8.137q53.357-20.721 109.196-8.138t109.196-8.137 109.196-8.137q55.838 12.583 109.195-8.138 53.358-20.72 109.195-8.137 55.845 12.584 109.2-8.137c35.57-13.814 71.97-16.526 109.19-8.138q55.845 12.584 109.2-8.137c35.57-13.814 71.97-16.526 109.19-8.137q55.845 12.583 109.2-8.137 53.355-20.721 109.2-8.138c37.22 8.389 73.62 5.677 109.19-8.137"/><path stroke="#F2F7FF" stroke-opacity=".1" stroke-width="2" d="M-399.42 283.401q53.358-20.72 109.196-8.137 55.84 12.584 109.196-8.137 53.358-20.721 109.196-8.138 55.84 12.584 109.196-8.137 53.357-20.72 109.196-8.137t109.196-8.137q53.357-20.721 109.196-8.138t109.196-8.137 109.195-8.137q55.84 12.583 109.196-8.138 53.358-20.72 109.196-8.137 55.84 12.584 109.196-8.137 53.356-20.72 109.199-8.137c37.22 8.389 73.62 5.676 109.19-8.138q53.355-20.72 109.2-8.137c37.22 8.389 73.62 5.677 109.19-8.137 35.58-13.814 71.97-16.527 109.2-8.138q55.845 12.584 109.2-8.137c35.57-13.814 71.97-16.526 109.19-8.137q55.845 12.583 109.2-8.137"/><path stroke="#F2F7FF" stroke-opacity=".1" stroke-width="2" d="M-398.703 293.008q53.357-20.72 109.196-8.137 55.84 12.583 109.196-8.137 53.357-20.721 109.196-8.138t109.196-8.137 109.196-8.137 109.196-8.138q53.357-20.72 109.195-8.137 55.84 12.584 109.196-8.137 53.358-20.72 109.196-8.137 55.84 12.583 109.196-8.138 53.357-20.72 109.196-8.137 55.84 12.584 109.196-8.137 53.358-20.721 109.192-8.138 55.845 12.584 109.2-8.137 53.355-20.72 109.2-8.137c37.22 8.389 73.62 5.676 109.19-8.137q53.355-20.721 109.2-8.138c37.22 8.389 73.62 5.677 109.19-8.137q53.355-20.72 109.2-8.137c37.23 8.389 73.62 5.676 109.2-8.138"/><path stroke="#F2F7FF" stroke-opacity=".1" stroke-width="2" d="M-397.987 302.615q53.357-20.72 109.196-8.137t109.196-8.137 109.196-8.138q55.838 12.584 109.196-8.137 53.357-20.72 109.196-8.137t109.195-8.138q53.358-20.72 109.196-8.137 55.84 12.584 109.196-8.137 53.358-20.72 109.196-8.137 55.84 12.583 109.196-8.138 53.357-20.72 109.196-8.137 55.84 12.584 109.196-8.137 53.357-20.721 109.196-8.138c37.23 8.389 73.62 5.677 109.2-8.137 35.57-13.814 71.97-16.526 109.19-8.137q55.845 12.583 109.2-8.137c35.57-13.814 71.97-16.527 109.19-8.138q55.845 12.584 109.2-8.137 53.355-20.72 109.2-8.137c37.22 8.389 73.62 5.676 109.19-8.138"/><path stroke="#F2F7FF" stroke-opacity=".1" stroke-width="2" d="M-397.271 312.222q53.357-20.721 109.196-8.138t109.196-8.137 109.196-8.137 109.195-8.138 109.196-8.137q55.84 12.584 109.196-8.137 53.358-20.72 109.196-8.137 55.84 12.583 109.196-8.138 53.357-20.72 109.196-8.137 55.839 12.584 109.196-8.137t109.196-8.138 109.196-8.137q53.356-20.72 109.2-8.137c37.22 8.389 73.62 5.676 109.19-8.137q53.355-20.721 109.2-8.138c37.22 8.389 73.62 5.677 109.19-8.137q53.355-20.72 109.2-8.137c37.22 8.389 73.62 5.676 109.19-8.138 35.58-13.813 71.97-16.526 109.2-8.137q55.845 12.584 109.2-8.137"/></svg>